<?xml version="1.0" encoding="iso-8859-1"?>
<!-- Generator: Adobe Illustrator 18.0.0, SVG Export Plug-In . SVG Version: 6.00 Build 0)  -->
<!DOCTYPE svg PUBLIC "-//W3C//DTD SVG 1.1//EN" "http://www.w3.org/Graphics/SVG/1.1/DTD/svg11.dtd">
<svg xmlns="http://www.w3.org/2000/svg" xmlns:xlink="http://www.w3.org/1999/xlink" version="1.1" id="Capa_1" x="0px" y="0px" viewBox="0 0 344 344" style="enable-background:new 0 0 344 344;" xml:space="preserve" width="512px" height="512px">
<path d="M304.223,162c-2.178-29.055-13.76-55.526-31.703-76.377l-21.278,21.279c12.594,15.302,20.847,34.301,22.868,55.099h-38.896  c-1.607-10.197-5.636-19.595-11.469-27.601c-3.949-5.418-8.725-10.194-14.143-14.143c-8.006-5.833-17.404-9.863-27.602-11.47V69.891  c20.797,2.021,39.797,10.274,55.099,22.868l21.278-21.279C237.526,53.537,211.055,41.955,182,39.778V0h-20v39.778  c-29.055,2.177-55.526,13.759-76.377,31.702l21.278,21.279C122.203,80.165,141.203,71.912,162,69.891v38.896  c-10.197,1.607-19.596,5.636-27.602,11.47c-5.418,3.949-10.193,8.724-14.143,14.143c-5.833,8.006-9.862,17.404-11.469,27.601H69.891  c2.021-20.797,10.274-39.797,22.868-55.099L71.48,85.623C53.537,106.474,41.955,132.945,39.777,162H0v20h39.777  c2.178,29.055,13.76,55.526,31.703,76.377l21.278-21.279C80.165,221.797,71.912,202.797,69.891,182h38.896  c1.606,10.197,5.636,19.595,11.469,27.601c3.949,5.418,8.725,10.194,14.143,14.143c8.006,5.833,17.404,9.863,27.602,11.47v38.896  c-20.797-2.022-39.797-10.274-55.099-22.868L85.623,272.52c20.851,17.943,47.322,29.525,76.377,31.702V344h20v-39.778  c29.055-2.177,55.526-13.759,76.377-31.702l-21.278-21.279c-15.302,12.594-34.302,20.847-55.099,22.868v-38.896  c10.197-1.607,19.596-5.636,27.602-11.47c5.418-3.949,10.193-8.724,14.143-14.143c5.833-8.006,9.862-17.404,11.469-27.601h38.896  c-2.022,20.797-10.274,39.797-22.868,55.099l21.278,21.279c17.943-20.851,29.525-47.323,31.703-76.377H344v-20H304.223z   M162,196.143v18.697c-4.743-1.107-9.193-2.978-13.213-5.484c-5.725-3.571-10.572-8.418-14.143-14.143  c-2.506-4.02-4.377-8.47-5.484-13.213h18.697H162V196.143z M162,147.857V162h-14.143H129.16c1.107-4.743,2.979-9.193,5.484-13.213  c3.57-5.725,8.418-10.572,14.143-14.143c4.02-2.506,8.47-4.377,13.213-5.484V147.857z M209.355,195.213  c-3.57,5.725-8.418,10.572-14.143,14.143c-4.02,2.506-8.47,4.377-13.213,5.484v-18.697V182h14.143h18.697  C213.732,186.743,211.861,191.193,209.355,195.213z M196.143,162H182v-14.143V129.16c4.743,1.107,9.193,2.978,13.213,5.484  c5.725,3.571,10.572,8.418,14.143,14.143c2.506,4.02,4.377,8.47,5.484,13.213H196.143z" fill="#006DF0"/>
<g>
</g>
<g>
</g>
<g>
</g>
<g>
</g>
<g>
</g>
<g>
</g>
<g>
</g>
<g>
</g>
<g>
</g>
<g>
</g>
<g>
</g>
<g>
</g>
<g>
</g>
<g>
</g>
<g>
</g>
</svg>
