<?xml version="1.0" encoding="iso-8859-1"?>
<!-- Generator: Adobe Illustrator 16.0.0, SVG Export Plug-In . SVG Version: 6.00 Build 0)  -->
<!DOCTYPE svg PUBLIC "-//W3C//DTD SVG 1.1//EN" "http://www.w3.org/Graphics/SVG/1.1/DTD/svg11.dtd">
<svg xmlns="http://www.w3.org/2000/svg" xmlns:xlink="http://www.w3.org/1999/xlink" version="1.1" id="Capa_1" x="0px" y="0px" width="512px" height="512px" viewBox="0 0 123.015 123.016" style="enable-background:new 0 0 123.015 123.016;" xml:space="preserve">
<g>
	<path d="M35.063,34.188c0.599,0,1.206-0.129,1.782-0.402c0.06-0.028,3.787-1.789,7.345-3.423c-3.179-0.883-5.856-2.959-7.53-5.72   c-1.849,0.864-3.236,1.519-3.384,1.589c-2.087,0.986-2.979,3.477-1.994,5.563C31.995,33.303,33.498,34.188,35.063,34.188z" fill="#91DC5A"/>
	<g>
		<path d="M81.314,26.513c4.031,1.85,8.308,3.87,8.375,3.902c0.647,0.305,1.329,0.45,2.001,0.45c1.756,0,3.438-0.992,4.237-2.685    c1.105-2.34,0.105-5.134-2.233-6.239c-0.174-0.082-1.87-0.884-4.095-1.921C87.772,23.116,84.826,25.47,81.314,26.513z" fill="#91DC5A"/>
		<circle cx="77.487" cy="12.986" r="12.986" fill="#91DC5A"/>
		<circle cx="46.169" cy="12.986" r="12.986" fill="#91DC5A"/>
		<path d="M48.641,27.26l-2.619,2.009l-1.986-1.813c-4.337,1.977-9.554,4.441-9.624,4.475c-0.759,0.358-1.566,0.54-2.4,0.54    c-0.924,0-1.813-0.242-2.606-0.659l-0.019,0.02c-5.02-4.026-9.203-10.997-10.67-13.998c-1.217-2.506-4.233-3.549-6.738-2.333    c-2.504,1.216-3.549,4.233-2.332,6.738c0.89,1.83,9.041,17.993,21.341,21.842c0.708,0.222,1.419,0.386,2.13,0.518    c0.081,3.1,0.229,9.08,0.229,11.085c0,5.118,1.054,6.53,1.054,6.53l0.005,6.239h0.093c-0.004,0.08-0.024,0.156-0.024,0.238    l0.003,48.277c0,3.291,2.667,5.958,5.958,5.958c3.29,0,5.958-2.667,5.958-5.958L46.39,68.689c0-0.082-0.021-0.158-0.024-0.238    h0.897c-0.004,0.08-0.024,0.156-0.024,0.238l-0.003,48.276c0,3.291,2.667,5.958,5.958,5.958c3.29,0,5.958-2.667,5.958-5.958    l0.004-48.276c0-0.082-0.021-0.158-0.023-0.24h0.016V62.96c0-0.199-0.013-0.396-0.03-0.589c0.63-1.824,0.968-3.824,0.968-5.924    V31.545c-2.143,0.172-8.595-4.511-9.387-4.871C50.173,26.824,49.183,27.17,48.641,27.26z" fill="#91DC5A"/>
		<path d="M111.042,15.949c-2.502-1.219-5.519-0.178-6.739,2.32c-1.425,2.916-5.403,9.575-10.221,13.646    c-0.788,0.411-1.669,0.65-2.587,0.65c-0.831,0-1.642-0.182-2.399-0.54c-0.07-0.034-5.286-2.498-9.624-4.475l-1.987,1.814    l-2.618-2.466c-0.543-0.091-1.075-0.207-1.598-0.358c-1.082,0.491-2.371,1.161-3.704,1.948c0.098-0.574,0.094-1.154-0.021-1.718    c0.593-0.345,1.175-0.663,1.747-0.964c-3.058-1.397-5.532-3.833-6.988-6.857c-0.806,0.49-1.597,0.991-2.352,1.501    c-1.102-0.632-2.165-1.234-3.001-1.707c-1.407,3.052-3.853,5.521-6.884,6.965c2.481,1.292,8.517,4.635,10.191,5.817    c0.367,0.258,0.763,0.435,1.168,0.575v24.444c0,2.1,0.338,4.1,0.966,5.924c-0.018,0.194-0.029,0.39-0.029,0.589v5.49h0.037    c-0.002,0.079-0.021,0.154-0.021,0.234l0.001,48.275c0,3.292,2.668,5.958,5.958,5.958c3.291,0,5.958-2.667,5.958-5.959    l-0.001-48.276c0-0.08-0.021-0.153-0.022-0.232h0.895c-0.002,0.079-0.023,0.152-0.023,0.232l-0.003,48.277    c0,3.291,2.667,5.958,5.958,5.959c3.29,0,5.958-2.667,5.958-5.958l0.004-48.276c0-0.082-0.021-0.155-0.023-0.234h0.069    l0.004-6.238c0,0,1.055-1.413,1.055-6.531c0-1.952,0.141-7.669,0.223-10.831c0.549-0.117,1.098-0.252,1.646-0.423    c12.3-3.851,20.45-20.012,21.34-21.843C114.584,20.179,113.542,17.168,111.042,15.949z" fill="#91DC5A"/>
	</g>
</g>
<g>
</g>
<g>
</g>
<g>
</g>
<g>
</g>
<g>
</g>
<g>
</g>
<g>
</g>
<g>
</g>
<g>
</g>
<g>
</g>
<g>
</g>
<g>
</g>
<g>
</g>
<g>
</g>
<g>
</g>
</svg>
